<svg width="57" height="60" viewBox="0 0 57 60" fill="none" xmlns="http://www.w3.org/2000/svg">
<g clip-path="url(#clip0_2_207)">
<path d="M44.9144 1.71859C44.9526 1.57582 45.0185 1.44197 45.1084 1.32469C45.1984 1.20741 45.3105 1.109 45.4385 1.03508C45.5665 0.961168 45.7078 0.913194 45.8543 0.893902C46.0009 0.874611 46.1497 0.884381 46.2925 0.922653C50.4747 2.04765 53.9144 4.62672 55.9731 8.19578C56.0545 8.32382 56.1092 8.46701 56.1338 8.61673C56.1584 8.76644 56.1525 8.91959 56.1164 9.06696C56.0803 9.21433 56.0148 9.35288 55.9237 9.47427C55.8327 9.59565 55.7181 9.69737 55.5867 9.7733C55.4554 9.84923 55.31 9.89781 55.1594 9.9161C55.0087 9.9344 54.856 9.92204 54.7103 9.87976C54.5645 9.83749 54.4289 9.76618 54.3114 9.67011C54.194 9.57405 54.0972 9.45522 54.0269 9.32078C52.2662 6.26359 49.3103 4.05297 45.7187 3.08547C45.4313 3.01004 45.1854 2.82397 45.0347 2.56788C44.884 2.31179 44.8408 2.00647 44.9144 1.71859ZM13.6844 57.3667C10.9309 55.1955 8.63874 52.4364 6.47312 48.6873C6.31745 48.4425 6.0732 48.2672 5.79136 48.1982C5.50953 48.1291 5.21193 48.1717 4.96071 48.3169C4.7095 48.4621 4.52411 48.6988 4.44326 48.9774C4.36242 49.2561 4.39237 49.5552 4.52687 49.8123C6.83875 53.8173 9.30812 56.7789 12.2922 59.133C12.4901 59.2892 12.7347 59.3743 12.9869 59.3748C13.2207 59.375 13.4487 59.3022 13.6393 59.1668C13.8298 59.0313 13.9734 58.8398 14.0502 58.619C14.1269 58.3981 14.1329 58.1588 14.0673 57.9344C14.0018 57.71 13.8679 57.5116 13.6844 57.3667ZM55.3094 39.6114C53.9628 44.6279 51.0023 49.0617 46.8849 52.228C42.7675 55.3944 37.7222 57.1172 32.5281 57.1305C30.4509 57.129 28.383 56.8548 26.3772 56.3148C23.3772 55.5204 20.5647 54.1386 18.1025 52.2495C15.6404 50.3604 13.5775 48.0015 12.0334 45.3095L1.34593 26.7977C0.694482 25.6691 0.383603 24.3762 0.450823 23.0748C0.518043 21.7735 0.960489 20.5195 1.72475 19.4641C2.48901 18.4087 3.54242 17.5971 4.75781 17.1272C5.9732 16.6573 7.29861 16.5493 8.57406 16.8161L6.59125 13.3792C5.75981 11.8691 5.53764 10.0981 5.97031 8.42944C6.40298 6.76076 7.45769 5.32086 8.91815 4.40501C10.3786 3.48917 12.1341 3.1668 13.8247 3.50402C15.5152 3.84124 17.0127 4.81249 18.01 6.21859C18.4114 4.97655 19.1643 3.87753 20.1775 3.05463C21.1907 2.23174 22.4208 1.72026 23.7188 1.58216C25.0167 1.44406 26.3269 1.68526 27.4906 2.27654C28.6543 2.86782 29.6216 3.78381 30.2753 4.91359L35.6416 14.1948C36.0483 12.9583 36.804 11.8657 37.8175 11.0488C38.831 10.2318 40.0591 9.72537 41.3538 9.59042C42.6486 9.45548 43.9547 9.6978 45.1149 10.2882C46.2751 10.8786 47.2398 11.7918 47.8928 12.918L52.9553 21.6873C54.5143 24.3705 55.5256 27.3363 55.9307 30.413C56.3357 33.4897 56.1265 36.6161 55.315 39.6114H55.3094ZM51.0062 22.8123L45.9437 14.043C45.6523 13.5235 45.2606 13.0671 44.7915 12.7002C44.3223 12.3332 43.7849 12.0631 43.2106 11.9054C42.6362 11.7478 42.0362 11.7057 41.4455 11.7816C40.8547 11.8576 40.2849 12.05 39.7691 12.3479C39.2533 12.6457 38.8017 13.043 38.4406 13.5166C38.0795 13.9903 37.816 14.531 37.6654 15.1072C37.5149 15.6835 37.4802 16.2839 37.5634 16.8737C37.6466 17.4635 37.8461 18.0309 38.1503 18.543L40.9628 23.4142C41.037 23.5422 41.0852 23.6835 41.1047 23.8301C41.1242 23.9767 41.1146 24.1257 41.0765 24.2686C41.0383 24.4115 40.9724 24.5454 40.8824 24.6628C40.7925 24.7802 40.6803 24.8787 40.5522 24.9527C38.227 26.2952 36.5303 28.5062 35.8351 31.0996C35.14 33.6929 35.5033 36.4562 36.8453 38.7817C36.9192 38.9097 36.9671 39.051 36.9864 39.1975C37.0057 39.344 36.9959 39.4928 36.9576 39.6356C36.9194 39.7783 36.8534 39.9121 36.7634 40.0293C36.6734 40.1465 36.5613 40.2449 36.4333 40.3187C36.3053 40.3926 36.164 40.4406 36.0175 40.4598C35.871 40.4791 35.7222 40.4693 35.5794 40.4311C35.4367 40.3928 35.3029 40.3268 35.1857 40.2368C35.0685 40.1469 34.9701 40.0347 34.8962 39.9067C33.3527 37.2306 32.8643 34.0745 33.5266 31.0569C34.1889 28.0394 35.9542 25.378 38.4766 23.5942L28.3262 6.02453C27.7217 5.00669 26.7403 4.26809 25.5949 3.96879C24.4495 3.6695 23.2323 3.83362 22.2071 4.4256C21.1819 5.01757 20.4312 5.9897 20.1178 7.13132C19.8044 8.27294 19.9535 9.49208 20.5328 10.5245L27.8453 23.1808C27.9945 23.4392 28.0349 23.7464 27.9576 24.0346C27.8803 24.3229 27.6917 24.5686 27.4333 24.7178C27.1748 24.867 26.8677 24.9074 26.5794 24.8301C26.2912 24.7529 26.0454 24.5642 25.8962 24.3058L16.3337 7.74296C16.0423 7.22352 15.6506 6.7671 15.1815 6.40017C14.7123 6.03324 14.1749 5.76311 13.6006 5.60543C13.0262 5.44775 12.4262 5.40567 11.8355 5.48161C11.2447 5.55756 10.6749 5.75003 10.1591 6.04787C9.64328 6.3457 9.19173 6.74297 8.83062 7.21664C8.46951 7.69031 8.20602 8.23095 8.05544 8.80723C7.90486 9.3835 7.87018 9.98393 7.95341 10.5737C8.03665 11.1635 8.23613 11.7309 8.54031 12.243L19.2278 30.752C19.3017 30.88 19.3496 31.0213 19.3689 31.1678C19.3882 31.3143 19.3784 31.4632 19.3401 31.6059C19.3019 31.7486 19.2359 31.8824 19.1459 31.9996C19.0559 32.1168 18.9438 32.2152 18.8158 32.2891C18.6878 32.3629 18.5465 32.4109 18.4 32.4301C18.2535 32.4494 18.1047 32.4396 17.9619 32.4014C17.8192 32.3631 17.6854 32.2971 17.5682 32.2071C17.451 32.1172 17.3526 32.005 17.2787 31.877L11.0912 21.1614C10.7998 20.642 10.4081 20.1855 9.93895 19.8186C9.46977 19.4517 8.93242 19.1815 8.35805 19.0239C7.78368 18.8662 7.18372 18.8241 6.59296 18.9001C6.0022 18.976 5.4324 19.1685 4.91659 19.4663C4.40078 19.7641 3.94923 20.1614 3.58812 20.6351C3.22701 21.1087 2.96352 21.6494 2.81294 22.2257C2.66236 22.8019 2.62768 23.4024 2.71091 23.9921C2.79415 24.5819 2.99363 25.1493 3.29781 25.6614L13.9853 44.1733C15.3568 46.6634 17.2112 48.8548 19.44 50.6195C21.6688 52.3841 24.2272 53.6864 26.9655 54.4502C29.7037 55.2139 32.5668 55.4238 35.3872 55.0675C38.2076 54.7112 40.9285 53.7959 43.3908 52.3752C45.8531 50.9545 48.0073 49.0568 49.7272 46.7934C51.4472 44.5299 52.6984 41.9461 53.4075 39.1932C54.1167 36.4403 54.2696 33.5736 53.8572 30.7608C53.4449 27.9481 52.4757 25.2459 51.0062 22.8123Z" fill="#E6FF00"/>
</g>
<defs>
<clipPath id="clip0_2_207">
<rect width="57" height="60" fill="white"/>
</clipPath>
</defs>
</svg>
