<svg width="66" height="51" viewBox="0 0 66 51" fill="none" xmlns="http://www.w3.org/2000/svg">
<g clip-path="url(#clip0_2_246)">
<path d="M64.8403 15.2779C64.5012 14.9816 64.0815 14.7929 63.6348 14.7358C63.188 14.6787 62.7344 14.7558 62.3316 14.9573L47.3044 22.4498C47.2989 22.4544 47.2919 22.4569 47.2847 22.4569C47.2775 22.4569 47.2706 22.4544 47.265 22.4498L34.9688 1.98041C34.766 1.6432 34.4794 1.36419 34.1369 1.17049C33.7944 0.976795 33.4076 0.875 33.0141 0.875C32.6206 0.875 32.2338 0.976795 31.8913 1.17049C31.5488 1.36419 31.2622 1.6432 31.0594 1.98041L18.735 22.4357C18.7293 22.4411 18.7218 22.444 18.7139 22.444C18.7061 22.444 18.6986 22.4411 18.6928 22.4357L3.67409 14.9601C3.27122 14.7586 2.81764 14.681 2.3707 14.7372C1.92375 14.7934 1.5035 14.9808 1.16306 15.2758C0.822614 15.5708 0.577268 15.9601 0.45803 16.3945C0.338791 16.8289 0.351013 17.2889 0.493149 17.7163L10.8994 49.5988C10.9516 49.7594 11.0393 49.9061 11.1559 50.0282C11.2726 50.1503 11.4152 50.2445 11.5732 50.3039C11.7313 50.3633 11.9006 50.3864 12.0688 50.3715C12.237 50.3566 12.3996 50.304 12.5447 50.2176C12.615 50.1726 20.0147 45.8751 33 45.8751C45.9853 45.8751 53.3822 50.1726 53.4553 50.2148C53.6002 50.3012 53.7627 50.3539 53.9307 50.369C54.0987 50.3842 54.268 50.3613 54.426 50.3022C54.584 50.243 54.7266 50.1491 54.8434 50.0273C54.9602 49.9056 55.0481 49.7592 55.1006 49.5988L65.5069 17.7163C65.6505 17.2896 65.6638 16.8299 65.5451 16.3956C65.4263 15.9613 65.181 15.5722 64.8403 15.2779ZM53.371 47.6442C51.9265 46.9713 50.4381 46.3972 48.916 45.9257C45.5831 44.8767 40.1156 43.6251 33 43.6251C25.8844 43.6251 20.4169 44.8767 17.0813 45.9257C15.5595 46.3982 14.0711 46.9723 12.6263 47.6442L2.62502 16.9963C2.62829 16.9895 2.63348 16.9837 2.63997 16.9797C2.64646 16.9757 2.65397 16.9737 2.66159 16.9738L17.6803 24.4607C18.194 24.7151 18.7844 24.7675 19.3348 24.6076C19.8852 24.4477 20.3557 24.0872 20.6531 23.5973L32.9663 3.13916C32.9686 3.1344 32.9722 3.13039 32.9766 3.12759C32.9811 3.12478 32.9863 3.12329 32.9916 3.12329C32.9969 3.12329 33.002 3.12478 33.0065 3.12759C33.011 3.13039 33.0146 3.1344 33.0169 3.13916L45.33 23.5973C45.6274 24.0865 46.0972 24.4467 46.6468 24.607C47.1965 24.7673 47.7862 24.7162 48.3 24.4635L63.3469 16.9654C63.3557 16.9686 63.3629 16.9751 63.3671 16.9834C63.3713 16.9918 63.3721 17.0015 63.3694 17.0104L53.371 47.6442ZM45.3581 36.906C45.312 37.1658 45.176 37.4011 44.9739 37.5707C44.7719 37.7404 44.5167 37.8336 44.2528 37.8342C44.1868 37.8343 44.121 37.8287 44.056 37.8173C36.7389 36.561 29.2612 36.561 21.9441 37.8173C21.7986 37.843 21.6494 37.8397 21.5051 37.8077C21.3609 37.7758 21.2243 37.7157 21.1033 37.6309C20.8588 37.4598 20.6923 37.1985 20.6405 36.9046C20.5886 36.6107 20.6557 36.3083 20.8268 36.0638C20.998 35.8193 21.2593 35.6529 21.5531 35.601C29.1289 34.2998 36.8711 34.2998 44.4469 35.601C44.5924 35.6268 44.7315 35.6811 44.8561 35.7606C44.9806 35.8402 45.0883 35.9435 45.173 36.0647C45.2576 36.1859 45.3175 36.3226 45.3493 36.4669C45.381 36.6113 45.3841 36.7605 45.3581 36.906Z" fill="#E6FF00"/>
</g>
<defs>
<clipPath id="clip0_2_246">
<rect width="66" height="51" fill="white"/>
</clipPath>
</defs>
</svg>
