<svg width="58" height="55" viewBox="0 0 58 55" fill="none" xmlns="http://www.w3.org/2000/svg">
<g clip-path="url(#clip0_2_193)">
<path d="M56 23.3749H52.5969C52.301 17.3159 49.6857 11.6029 45.2929 7.41935C40.9 3.23581 35.0662 0.902344 29 0.902344C22.9338 0.902344 17.1 3.23581 12.7071 7.41935C8.3143 11.6029 5.69904 17.3159 5.40312 23.3749H2C1.70163 23.3749 1.41548 23.4934 1.20451 23.7044C0.993527 23.9154 0.875 24.2015 0.875 24.4999C0.884396 29.7602 2.36416 34.9132 5.14722 39.3771C7.93029 43.8409 11.9058 47.4378 16.625 49.7618V51.4999C16.625 52.395 16.9806 53.2535 17.6135 53.8864C18.2464 54.5193 19.1049 54.8749 20 54.8749H38C38.8951 54.8749 39.7535 54.5193 40.3865 53.8864C41.0194 53.2535 41.375 52.395 41.375 51.4999V49.7618C46.0942 47.4378 50.0697 43.8409 52.8528 39.3771C55.6358 34.9132 57.1156 29.7602 57.125 24.4999C57.125 24.2015 57.0065 23.9154 56.7955 23.7044C56.5845 23.4934 56.2984 23.3749 56 23.3749ZM50.3441 23.3749H32.6703C34.1167 20.6811 36.1247 18.3293 38.5586 16.4787C40.9925 14.6281 43.7954 13.3217 46.7778 12.648C48.9146 15.8354 50.1471 19.5426 50.3441 23.3749ZM45.3125 10.699C42.0187 11.5901 38.9573 13.1847 36.3392 15.3731C33.7212 17.5614 31.6087 20.2914 30.1475 23.3749H19.6288C20.8719 18.8565 23.5615 14.87 27.2857 12.0255C31.01 9.18104 35.5637 7.6353 40.25 7.6249C40.9053 7.6249 41.5663 7.66147 42.2188 7.72053C43.3464 8.60812 44.3827 9.60586 45.3125 10.699ZM29 3.1249C32.3529 3.12198 35.6587 3.91327 38.6469 5.43397C33.6496 5.78458 28.8919 7.70981 25.0571 10.9332C21.2222 14.1566 18.5076 18.5123 17.3028 23.3749H7.65594C7.95008 17.9106 10.3263 12.7666 14.2961 9.00024C18.266 5.23388 23.5278 3.13138 29 3.1249ZM39.7803 48.0293C39.5845 48.1192 39.4187 48.2635 39.3025 48.445C39.1863 48.6265 39.1247 48.8375 39.125 49.053V51.4999C39.125 51.7983 39.0065 52.0844 38.7955 52.2954C38.5845 52.5064 38.2984 52.6249 38 52.6249H20C19.7016 52.6249 19.4155 52.5064 19.2045 52.2954C18.9935 52.0844 18.875 51.7983 18.875 51.4999V49.053C18.8753 48.8375 18.8137 48.6265 18.6975 48.445C18.5813 48.2635 18.4155 48.1192 18.2197 48.0293C13.895 46.0356 10.2019 42.8911 7.54413 38.9397C4.88638 34.9882 3.36636 30.3821 3.15031 25.6249H54.8497C54.6336 30.3821 53.1136 34.9882 50.4559 38.9397C47.7981 42.8911 44.105 46.0356 39.7803 48.0293Z" fill="#E6FF00"/>
</g>
<defs>
<clipPath id="clip0_2_193">
<rect width="58" height="55" fill="white"/>
</clipPath>
</defs>
</svg>
