<svg width="70" height="44" viewBox="0 0 70 44" fill="none" xmlns="http://www.w3.org/2000/svg">
<path d="M68.75 20.875H65.375V10.75C65.375 9.85489 65.0194 8.99645 64.3865 8.36351C63.7535 7.73058 62.8951 7.375 62 7.375H56.375V4C56.375 3.10489 56.0194 2.24645 55.3865 1.61351C54.7535 0.980579 53.8951 0.625 53 0.625H46.25C45.3549 0.625 44.4965 0.980579 43.8635 1.61351C43.2306 2.24645 42.875 3.10489 42.875 4V20.875H27.125V4C27.125 3.10489 26.7694 2.24645 26.1365 1.61351C25.5036 0.980579 24.6451 0.625 23.75 0.625H17C16.1049 0.625 15.2464 0.980579 14.6135 1.61351C13.9806 2.24645 13.625 3.10489 13.625 4V7.375H8C7.10489 7.375 6.24645 7.73058 5.61351 8.36351C4.98058 8.99645 4.625 9.85489 4.625 10.75V20.875H1.25C0.951631 20.875 0.665483 20.9935 0.454505 21.2045C0.243526 21.4155 0.125 21.7016 0.125 22C0.125 22.2984 0.243526 22.5845 0.454505 22.7955C0.665483 23.0065 0.951631 23.125 1.25 23.125H4.625V33.25C4.625 34.1451 4.98058 35.0035 5.61351 35.6365C6.24645 36.2694 7.10489 36.625 8 36.625H13.625V40C13.625 40.8951 13.9806 41.7535 14.6135 42.3865C15.2464 43.0194 16.1049 43.375 17 43.375H23.75C24.6451 43.375 25.5036 43.0194 26.1365 42.3865C26.7694 41.7535 27.125 40.8951 27.125 40V23.125H42.875V40C42.875 40.8951 43.2306 41.7535 43.8635 42.3865C44.4965 43.0194 45.3549 43.375 46.25 43.375H53C53.8951 43.375 54.7535 43.0194 55.3865 42.3865C56.0194 41.7535 56.375 40.8951 56.375 40V36.625H62C62.8951 36.625 63.7535 36.2694 64.3865 35.6365C65.0194 35.0035 65.375 34.1451 65.375 33.25V23.125H68.75C69.0484 23.125 69.3345 23.0065 69.5455 22.7955C69.7565 22.5845 69.875 22.2984 69.875 22C69.875 21.7016 69.7565 21.4155 69.5455 21.2045C69.3345 20.9935 69.0484 20.875 68.75 20.875ZM8 34.375C7.70163 34.375 7.41548 34.2565 7.20451 34.0455C6.99353 33.8345 6.875 33.5484 6.875 33.25V10.75C6.875 10.4516 6.99353 10.1655 7.20451 9.9545C7.41548 9.74353 7.70163 9.625 8 9.625H13.625V34.375H8ZM24.875 40C24.875 40.2984 24.7565 40.5845 24.5455 40.7955C24.3345 41.0065 24.0484 41.125 23.75 41.125H17C16.7016 41.125 16.4155 41.0065 16.2045 40.7955C15.9935 40.5845 15.875 40.2984 15.875 40V4C15.875 3.70163 15.9935 3.41548 16.2045 3.20451C16.4155 2.99353 16.7016 2.875 17 2.875H23.75C24.0484 2.875 24.3345 2.99353 24.5455 3.20451C24.7565 3.41548 24.875 3.70163 24.875 4V40ZM54.125 40C54.125 40.2984 54.0065 40.5845 53.7955 40.7955C53.5845 41.0065 53.2984 41.125 53 41.125H46.25C45.9516 41.125 45.6655 41.0065 45.4545 40.7955C45.2435 40.5845 45.125 40.2984 45.125 40V4C45.125 3.70163 45.2435 3.41548 45.4545 3.20451C45.6655 2.99353 45.9516 2.875 46.25 2.875H53C53.2984 2.875 53.5845 2.99353 53.7955 3.20451C54.0065 3.41548 54.125 3.70163 54.125 4V40ZM63.125 33.25C63.125 33.5484 63.0065 33.8345 62.7955 34.0455C62.5845 34.2565 62.2984 34.375 62 34.375H56.375V9.625H62C62.2984 9.625 62.5845 9.74353 62.7955 9.9545C63.0065 10.1655 63.125 10.4516 63.125 10.75V33.25Z" fill="#E6FF00"/>
</svg>
