<svg width="48" height="60" viewBox="0 0 48 60" fill="none" xmlns="http://www.w3.org/2000/svg">
<g clip-path="url(#clip0_2_221)">
<path d="M38.6081 37.9384C38.067 40.9682 36.6099 43.7592 34.4334 45.9352C32.2569 48.1112 29.4655 49.5676 26.4356 50.1081C26.3744 50.1193 26.3123 50.1249 26.25 50.125C25.9692 50.1229 25.6993 50.0159 25.4934 49.825C25.2875 49.634 25.1604 49.373 25.1372 49.0932C25.1139 48.8133 25.1962 48.5349 25.3677 48.3126C25.5393 48.0903 25.7878 47.9402 26.0644 47.8918C31.1775 47.0312 35.5228 42.6859 36.3919 37.5615C36.4524 37.2776 36.6203 37.028 36.8605 36.865C37.1007 36.702 37.3946 36.6382 37.6808 36.6869C37.967 36.7355 38.2233 36.8929 38.3961 37.1262C38.5689 37.3594 38.6449 37.6504 38.6081 37.9384ZM47.625 35.5C47.625 41.7657 45.1359 47.7748 40.7054 52.2054C36.2749 56.6359 30.2657 59.125 24 59.125C17.7343 59.125 11.7251 56.6359 7.2946 52.2054C2.86405 47.7748 0.375 41.7657 0.375 35.5C0.375 27.9062 3.38719 20.1015 9.33 12.3165C9.42649 12.1887 9.54918 12.0829 9.68986 12.0062C9.83053 11.9296 9.98595 11.8839 10.1457 11.8722C10.3055 11.8605 10.4659 11.883 10.6162 11.9383C10.7666 11.9936 10.9034 12.0803 11.0175 12.1928L19.0472 19.9834L25.8394 1.36464C25.9011 1.19534 26.0026 1.04333 26.1353 0.921434C26.2681 0.799534 26.4281 0.711302 26.6021 0.664166C26.776 0.617029 26.9587 0.612367 27.1348 0.650573C27.3109 0.688778 27.4753 0.768733 27.6141 0.883706C33.6244 5.88152 47.625 19.255 47.625 35.5ZM45.375 35.5C45.375 21.2068 33.6384 9.08777 27.3919 3.65402L20.5575 22.3853C20.4933 22.5619 20.3859 22.7197 20.2451 22.8441C20.1042 22.9686 19.9345 23.0558 19.7513 23.0977C19.5681 23.1397 19.3773 23.1351 19.1963 23.0843C19.0153 23.0335 18.85 22.9383 18.7153 22.8071L10.3594 14.6875C5.22656 21.7384 2.625 28.7303 2.625 35.5C2.625 41.169 4.877 46.6058 8.88559 50.6144C12.8942 54.623 18.331 56.875 24 56.875C29.669 56.875 35.1058 54.623 39.1144 50.6144C43.123 46.6058 45.375 41.169 45.375 35.5Z" fill="#E6FF00"/>
</g>
<defs>
<clipPath id="clip0_2_221">
<rect width="48" height="60" fill="white"/>
</clipPath>
</defs>
</svg>
