<svg width="58" height="59" viewBox="0 0 58 59" fill="none" xmlns="http://www.w3.org/2000/svg">
<g clip-path="url(#clip0_2_200)">
<path d="M56.6328 12.7144L54.5937 11.5303C54.9838 10.3755 54.9838 9.12451 54.5937 7.96969L56.6441 6.78562C56.8889 6.62996 57.0642 6.3857 57.1332 6.10387C57.2023 5.82204 57.1597 5.52443 57.0145 5.27322C56.8693 5.02201 56.6326 4.83661 56.354 4.75577C56.0753 4.67492 55.7762 4.70488 55.5191 4.83937L53.4631 6.02344C52.6548 5.10883 51.5709 4.48198 50.375 4.2375V1.875C50.375 1.57663 50.2565 1.29048 50.0455 1.07951C49.8345 0.868527 49.5484 0.75 49.25 0.75C48.9516 0.75 48.6655 0.868527 48.4545 1.07951C48.2435 1.29048 48.125 1.57663 48.125 1.875V4.2375C46.9332 4.48426 45.8535 5.11092 45.0481 6.02344L42.9922 4.83937C42.8641 4.75798 42.7209 4.70332 42.5712 4.6787C42.4215 4.65407 42.2684 4.65999 42.121 4.69608C41.9736 4.73218 41.8351 4.79771 41.7137 4.88874C41.5923 4.97977 41.4906 5.09442 41.4147 5.22578C41.3387 5.35714 41.2901 5.5025 41.2719 5.65312C41.2536 5.80374 41.2659 5.95651 41.3082 6.10223C41.3505 6.24795 41.4218 6.38361 41.5178 6.50105C41.6139 6.6185 41.7327 6.71529 41.8672 6.78562L43.9062 7.96969C43.5162 9.12451 43.5162 10.3755 43.9062 11.5303L41.8559 12.7144C41.642 12.8385 41.475 13.0296 41.3806 13.2581C41.2862 13.4867 41.2698 13.74 41.3338 13.9788C41.3978 14.2177 41.5388 14.4288 41.7348 14.5795C41.9309 14.7302 42.1711 14.8121 42.4184 14.8125C42.6162 14.8132 42.8104 14.7608 42.9809 14.6606L45.0369 13.4766C45.8452 14.3912 46.9291 15.018 48.125 15.2625V17.625C48.125 17.9234 48.2435 18.2095 48.4545 18.4205C48.6655 18.6315 48.9516 18.75 49.25 18.75C49.5484 18.75 49.8345 18.6315 50.0455 18.4205C50.2565 18.2095 50.375 17.9234 50.375 17.625V15.2625C51.5668 15.0157 52.6465 14.3891 53.4519 13.4766L55.5078 14.6606C55.6783 14.7608 55.8726 14.8132 56.0703 14.8125C56.3176 14.8121 56.5578 14.7302 56.7539 14.5795C56.95 14.4288 57.0909 14.2177 57.1549 13.9788C57.219 13.74 57.2025 13.4867 57.1081 13.2581C57.0138 13.0296 56.8467 12.8385 56.6328 12.7144ZM49.25 13.125C48.5825 13.125 47.93 12.9271 47.3749 12.5562C46.8199 12.1854 46.3873 11.6583 46.1319 11.0416C45.8765 10.4249 45.8096 9.74626 45.9398 9.09157C46.0701 8.43688 46.3915 7.83552 46.8635 7.36351C47.3355 6.89151 47.9369 6.57007 48.5916 6.43985C49.2462 6.30962 49.9248 6.37646 50.5415 6.63191C51.1582 6.88735 51.6854 7.31993 52.0562 7.87495C52.427 8.42997 52.625 9.08249 52.625 9.75C52.625 10.6451 52.2694 11.5035 51.6365 12.1365C51.0035 12.7694 50.1451 13.125 49.25 13.125ZM55.4375 24.3919C55.1438 24.4415 54.8817 24.6055 54.7088 24.848C54.5358 25.0906 54.4662 25.3918 54.515 25.6856C54.7533 27.1114 54.8737 28.5544 54.875 30C54.8772 33.3877 54.212 36.7426 52.9172 39.8731C51.6225 43.0036 49.7236 45.8483 47.3291 48.2447C44.5343 43.5722 40.0537 40.1496 34.8106 38.6822C37.2484 37.3857 39.1826 35.3113 40.3054 32.7889C41.4283 30.2664 41.6754 27.4409 41.0073 24.7619C40.3392 22.0829 38.7944 19.7042 36.6186 18.0044C34.4428 16.3046 31.7611 15.3812 29 15.3812C26.2389 15.3812 23.5572 16.3046 21.3814 18.0044C19.2056 19.7042 17.6608 22.0829 16.9927 24.7619C16.3246 27.4409 16.5717 30.2664 17.6946 32.7889C18.8174 35.3113 20.7516 37.3857 23.1894 38.6822C17.9463 40.1496 13.4657 43.5722 10.6709 48.2447C7.06797 44.6214 4.61849 40.0124 3.63132 34.9989C2.64414 29.9854 3.16348 24.7918 5.12384 20.0731C7.0842 15.3543 10.3978 11.3216 14.6469 8.48344C18.896 5.64528 23.8902 4.12873 29 4.125C30.4455 4.12515 31.8885 4.24462 33.3144 4.48219C33.6073 4.52841 33.9066 4.45709 34.1473 4.28375C34.3879 4.11041 34.5504 3.84906 34.5993 3.55657C34.6482 3.26407 34.5797 2.96408 34.4086 2.72186C34.2375 2.47963 33.9776 2.31477 33.6856 2.26312C27.813 1.27864 21.7795 2.18551 16.4559 4.85286C11.1322 7.52022 6.79364 11.8101 4.06645 17.1034C1.33926 22.3966 0.364439 28.4196 1.28267 34.3029C2.2009 40.1862 4.96469 45.6256 9.17518 49.836C13.3857 54.0465 18.8251 56.8103 24.7084 57.7286C30.5917 58.6468 36.6146 57.672 41.9079 54.9448C47.2011 52.2176 51.491 47.8791 54.1584 42.5554C56.8257 37.2317 57.7326 31.1982 56.7481 25.3256C56.725 25.1775 56.6725 25.0355 56.5937 24.9079C56.5149 24.7804 56.4115 24.6699 56.2894 24.5829C56.1673 24.4959 56.029 24.4342 55.8827 24.4014C55.7364 24.3686 55.585 24.3653 55.4375 24.3919ZM18.875 27.75C18.875 25.7475 19.4688 23.7899 20.5814 22.1248C21.6939 20.4598 23.2752 19.1621 25.1253 18.3957C26.9754 17.6294 29.0112 17.4289 30.9753 17.8195C32.9393 18.2102 34.7434 19.1745 36.1594 20.5905C37.5755 22.0065 38.5398 23.8106 38.9304 25.7747C39.3211 27.7388 39.1206 29.7746 38.3543 31.6247C37.5879 33.4748 36.2902 35.0561 34.6251 36.1686C32.9601 37.2812 31.0025 37.875 29 37.875C26.3147 37.875 23.7393 36.8083 21.8405 34.9095C19.9417 33.0106 18.875 30.4353 18.875 27.75ZM12.3697 49.8056C14.0387 46.8657 16.4572 44.4207 19.3788 42.7197C22.3004 41.0188 25.6207 40.1226 29.0014 40.1226C32.3821 40.1226 35.7024 41.0188 38.624 42.7197C41.5456 44.4207 43.9641 46.8657 45.6331 49.8056C40.9777 53.7256 35.0874 55.8752 29.0014 55.8752C22.9154 55.8752 17.0251 53.7256 12.3697 49.8056Z" fill="#E6FF00"/>
</g>
<defs>
<clipPath id="clip0_2_200">
<rect width="58" height="59" fill="white"/>
</clipPath>
</defs>
</svg>
