<svg width="20" height="20" viewBox="0 0 20 20" fill="none" xmlns="http://www.w3.org/2000/svg">
<path d="M18.3333 10.1168C18.3322 9.75918 18.2261 9.40974 18.0281 9.11191C17.8301 8.81408 17.5489 8.581 17.2196 8.44162C16.8902 8.30224 16.5271 8.2627 16.1755 8.32793C15.8239 8.39315 15.4991 8.56026 15.2417 8.80849C13.7966 7.83227 12.1017 7.29141 10.3583 7.25015L11.1917 3.33349L13.9167 3.92515C13.9306 4.24138 14.0594 4.54166 14.279 4.76965C14.4986 4.99765 14.7938 5.1377 15.1093 5.16353C15.4248 5.18937 15.7388 5.09921 15.9926 4.90998C16.2463 4.72074 16.4223 4.44543 16.4875 4.13568C16.5527 3.82594 16.5027 3.50304 16.3468 3.22757C16.1909 2.95209 15.9398 2.74296 15.6407 2.63941C15.3416 2.53585 15.0149 2.54499 14.7221 2.6651C14.4292 2.78522 14.1902 3.00806 14.05 3.29182L11.0167 2.65015C10.925 2.63349 10.8333 2.65015 10.775 2.70015C10.7 2.74182 10.6583 2.81682 10.6417 2.91682L9.71665 7.26682C7.77499 7.32515 6.02499 7.91682 4.75832 8.81682C4.41337 8.49978 3.96012 8.32683 3.49165 8.33349C3.07181 8.3214 2.66095 8.45651 2.33023 8.71543C1.99951 8.97435 1.76974 9.34077 1.68073 9.75125C1.59171 10.1617 1.64904 10.5904 1.84279 10.9631C2.03654 11.3357 2.35452 11.6289 2.74165 11.7918C2.71091 11.9735 2.69696 12.1576 2.69999 12.3418C2.69999 15.1502 5.96665 17.4418 9.99999 17.4418C14.0333 17.4418 17.3 15.1668 17.3 12.3418C17.3 12.1668 17.2917 11.9752 17.2583 11.7918C17.5791 11.6449 17.851 11.409 18.0416 11.112C18.2322 10.8151 18.3334 10.4697 18.3333 10.1168ZM5.83332 11.4168C5.83332 10.7002 6.39999 10.1168 7.11665 10.1168C7.83332 10.1168 8.41665 10.7002 8.41665 11.4168C8.41665 11.7616 8.27969 12.0923 8.03589 12.3361C7.7921 12.5799 7.46144 12.7168 7.11665 12.7168C6.39999 12.7335 5.83332 12.1335 5.83332 11.4168ZM13.0917 14.8668C12.1917 15.7668 10.4917 15.8335 9.99999 15.8335C9.49165 15.8335 7.79165 15.7502 6.90832 14.8668C6.87683 14.8358 6.85181 14.7988 6.83474 14.7581C6.81767 14.7173 6.80888 14.6735 6.80888 14.6293C6.80888 14.5851 6.81767 14.5414 6.83474 14.5006C6.85181 14.4598 6.87683 14.4228 6.90832 14.3918C6.93934 14.3603 6.97631 14.3353 7.01708 14.3182C7.05786 14.3012 7.10162 14.2924 7.14582 14.2924C7.19002 14.2924 7.23379 14.3012 7.27456 14.3182C7.31533 14.3353 7.3523 14.3603 7.38332 14.3918C7.94999 14.9585 9.16665 15.1502 9.99999 15.1502C10.8333 15.1502 12.0583 14.9585 12.6167 14.3918C12.6477 14.3603 12.6846 14.3353 12.7254 14.3182C12.7662 14.3012 12.81 14.2924 12.8542 14.2924C12.8984 14.2924 12.9421 14.3012 12.9829 14.3182C13.0237 14.3353 13.0606 14.3603 13.0917 14.3918C13.2083 14.5252 13.2083 14.7335 13.0917 14.8668ZM12.85 12.7335C12.1333 12.7335 11.55 12.1502 11.55 11.4335C11.55 11.0887 11.687 10.758 11.9307 10.5142C12.1745 10.2705 12.5052 10.1335 12.85 10.1335C13.5667 10.1335 14.1667 10.7168 14.1667 11.4335C14.1581 11.7784 14.0161 12.1066 13.7705 12.349C13.525 12.5915 13.195 12.7293 12.85 12.7335Z" fill="white"/>
</svg>
