<svg width="14" height="13" viewBox="0 0 14 13" fill="none" xmlns="http://www.w3.org/2000/svg">
<path d="M6.09503 0.34536C6.2447 -0.115296 6.89641 -0.115294 7.04608 0.345361L8.25441 4.06421C8.32135 4.27022 8.51333 4.4097 8.72994 4.4097H12.6402C13.1245 4.4097 13.3259 5.02951 12.9341 5.31421L9.77062 7.61258C9.59538 7.7399 9.52205 7.96559 9.58898 8.1716L10.7973 11.8904C10.947 12.3511 10.4197 12.7342 10.0279 12.4495L6.86445 10.1511C6.68921 10.0238 6.45191 10.0238 6.27666 10.1511L3.11322 12.4495C2.72137 12.7342 2.19413 12.3511 2.3438 11.8904L3.55213 8.1716C3.61907 7.96559 3.54574 7.7399 3.37049 7.61258L0.207052 5.31421C-0.184805 5.02951 0.0165845 4.4097 0.500946 4.4097H4.41117C4.62779 4.4097 4.81976 4.27022 4.8867 4.06421L6.09503 0.34536Z" fill="#E6FF00"/>
</svg>
