<svg width="16" height="16" viewBox="0 0 16 16" fill="none" xmlns="http://www.w3.org/2000/svg">
<g clip-path="url(#clip0_2047_837)">
<path d="M8 16C5.878 16 3.843 15.157 2.343 13.657C0.843 12.157 0 10.122 0 8C0 5.878 0.843 3.843 2.343 2.343C3.843 0.843 5.878 0 8 0C9.051 0 10.091 0.207 11.062 0.609C12.032 1.011 12.914 1.6 13.657 2.343C14.4 3.086 14.989 3.968 15.391 4.939C15.793 5.909 16 6.949 16 8C16 9.051 15.793 10.091 15.391 11.062C14.989 12.032 14.4 12.914 13.657 13.657C12.914 14.4 12.032 14.989 11.062 15.391C10.091 15.793 9.051 16 8 16Z" fill="#E6FF00"/>
<path d="M7.10999 11.174C6.98299 11.175 6.85799 11.15 6.74099 11.101C6.62399 11.053 6.51799 10.982 6.42899 10.893L3.78699 8.25095C3.60799 8.06995 3.50899 7.82495 3.50999 7.57095C3.50999 7.31695 3.61199 7.07295 3.79199 6.89395C3.97099 6.71395 4.21499 6.61195 4.46899 6.61095C4.72299 6.60995 4.96799 6.70995 5.14899 6.88795L7.10999 8.84895L10.851 5.10795C11.032 4.92695 11.277 4.82495 11.532 4.82495C11.788 4.82495 12.033 4.92695 12.213 5.10795C12.394 5.28795 12.495 5.53295 12.495 5.78895C12.495 6.04395 12.394 6.28895 12.213 6.46995L7.79099 10.893C7.70099 10.982 7.59499 11.053 7.47799 11.101C7.36199 11.15 7.23599 11.175 7.10999 11.174Z" fill="#222222"/>
</g>
<defs>
<clipPath id="clip0_2047_837">
<rect width="16" height="16" fill="white"/>
</clipPath>
</defs>
</svg>
