<svg width="20" height="20" viewBox="0 0 20 20" fill="none" xmlns="http://www.w3.org/2000/svg">
<path d="M8.33335 12.4998L12.6584 9.99984L8.33335 7.49984V12.4998ZM17.9667 5.97484C18.075 6.3665 18.15 6.8915 18.2 7.55817C18.2584 8.22484 18.2834 8.79984 18.2834 9.29984L18.3334 9.99984C18.3334 11.8248 18.2 13.1665 17.9667 14.0248C17.7584 14.7748 17.275 15.2582 16.525 15.4665C16.1334 15.5748 15.4167 15.6498 14.3167 15.6998C13.2334 15.7582 12.2417 15.7832 11.325 15.7832L10 15.8332C6.50835 15.8332 4.33335 15.6998 3.47502 15.4665C2.72502 15.2582 2.24169 14.7748 2.03335 14.0248C1.92502 13.6332 1.85002 13.1082 1.80002 12.4415C1.74169 11.7748 1.71669 11.1998 1.71669 10.6998L1.66669 9.99984C1.66669 8.17484 1.80002 6.83317 2.03335 5.97484C2.24169 5.22484 2.72502 4.7415 3.47502 4.53317C3.86669 4.42484 4.58335 4.34984 5.68335 4.29984C6.76669 4.2415 7.75835 4.2165 8.67502 4.2165L10 4.1665C13.4917 4.1665 15.6667 4.29984 16.525 4.53317C17.275 4.7415 17.7584 5.22484 17.9667 5.97484Z" fill="white"/>
</svg>
